<svg width="587" height="50" viewBox="0 0 587 116" fill="#000000" xmlns="http://www.w3.org/2000/svg">
<path d="M69.0896 112.274C37.221 112.274 10.1103 91.2844 6 63.4644L10.4481 62.9427C14.2768 88.8004 39.4732 108.324 69.0896 108.324C101.69 108.324 128.238 84.9255 128.238 56.1368C128.238 25.187 156.784 0 191.862 0H516.854C548.722 0 575.833 20.9892 579.944 48.8092L575.495 49.3308C571.667 23.4731 546.47 3.94945 516.854 3.94945H191.862C159.262 3.94945 132.714 27.3481 132.714 56.1368C132.714 87.0865 104.168 112.274 69.0896 112.274Z" fill="#00321F"/>
<g clip-path="url(#clip0_3_448)">
<g opacity="0.4">
<path d="M102.454 85.6849C120.836 69.466 120.836 43.1701 102.454 26.9513C84.0721 10.7325 54.2688 10.7325 35.8867 26.9513C17.5045 43.1701 17.5045 69.466 35.8867 85.6848C54.2688 101.904 84.0721 101.904 102.454 85.6849Z" fill="#595959"/>
</g>
<path d="M102.454 85.6849C120.836 69.466 120.836 43.1701 102.454 26.9513C84.0721 10.7325 54.2688 10.7325 35.8867 26.9513C17.5045 43.1701 17.5045 69.466 35.8867 85.6848C54.2688 101.904 84.0721 101.904 102.454 85.6849Z" fill="#00321F"/>
<path d="M514.332 100.061H195.083C167.691 100.061 145.507 80.4876 145.507 56.319C145.507 32.1504 167.691 12.577 195.083 12.577H514.332C541.724 12.577 563.908 32.1504 563.908 56.319C563.908 80.4628 541.696 100.061 514.332 100.061Z" fill="#00321F"/>
<path d="M586.077 48.3456C586.443 52.4441 582.952 56.0209 578.307 56.319C573.662 56.6419 569.608 53.5618 569.27 49.4633C568.904 45.3649 572.395 41.788 577.04 41.4899C581.685 41.167 585.711 44.2471 586.077 48.3456Z" fill="#00321F"/>
<path d="M16.8352 63.1746C16.4692 59.0762 12.4153 56.0209 7.79826 56.319C3.15311 56.6419 -0.30964 60.2188 0.0281894 64.2924C0.394171 68.3909 4.44812 71.4461 9.06512 71.1481C13.7103 70.85 17.2012 67.2731 16.8352 63.1746Z" fill="#00321F"/>
<path d="M74.9699 78.9476C68.8046 78.9476 62.977 76.8363 58.6134 72.9862L47.8028 63.4479C43.4392 59.5978 41.0463 54.4809 41.0463 49.0162C41.0463 43.5764 43.4392 38.4595 47.8028 34.5846C48.4785 33.9885 49.5765 33.9885 50.2521 34.5846L59.9929 43.179C60.3025 43.4522 60.4996 43.8497 60.4996 44.2471C60.4996 44.6445 60.3307 45.042 59.9929 45.3152C58.8668 46.3088 58.2756 47.6004 58.2756 48.9914C58.2756 50.3824 58.8949 51.6989 59.9929 52.6676L70.8034 62.2059C73.0274 64.1682 76.9125 64.1682 79.1365 62.2059C79.784 61.6346 80.9383 61.6346 81.5858 62.2059L91.3265 70.8003C91.6362 71.0735 91.8333 71.471 91.8333 71.8684C91.8333 72.2658 91.6643 72.6632 91.3265 72.9365C86.9629 76.8114 81.1635 78.9476 74.9699 78.9476ZM49.0979 37.8882C46.1137 41.018 44.509 44.9178 44.509 49.0411C44.509 53.686 46.5641 58.0329 50.2803 61.3117L61.0908 70.85C64.8069 74.1288 69.7336 75.9172 74.9981 75.9172C79.6714 75.9172 84.0913 74.5014 87.6385 71.8684L80.2908 65.3853C78.7424 66.3292 76.9125 66.826 75.0262 66.826C72.5207 66.826 70.184 65.9815 68.4104 64.4166L57.5999 54.8783C55.8263 53.3134 54.8691 51.2518 54.8691 49.0411C54.8691 47.352 55.4322 45.7375 56.5019 44.3713L49.0979 37.8882Z" fill="white"/>
<path d="M87.8638 55.1515C86.9066 55.1515 86.1465 54.4809 86.1465 53.6363C86.1465 45.812 78.9394 39.4531 70.0714 39.4531C69.1142 39.4531 68.3541 38.7825 68.3541 37.9379C68.3541 37.0934 69.1142 36.4227 70.0714 36.4227C80.8256 36.4227 89.5811 44.1477 89.5811 53.6363C89.6092 54.4809 88.8209 55.1515 87.8638 55.1515Z" fill="white"/>
<path d="M78.9676 56.319C78.0104 56.319 77.2503 55.6483 77.2503 54.8038C77.2503 50.6805 73.4497 47.3272 68.7764 47.3272C67.8193 47.3272 67.0591 46.6565 67.0591 45.812C67.0591 44.9674 67.8193 44.2968 68.7764 44.2968C75.3641 44.2968 80.7131 49.0162 80.7131 54.8286C80.6849 55.6235 79.9248 56.319 78.9676 56.319Z" fill="white"/>
<path d="M222.072 21.3496C223.539 21.3496 224.826 21.6362 225.932 22.2096C227.052 22.7829 227.912 23.6029 228.512 24.6696C229.126 25.7229 229.432 26.9496 229.432 28.3496C229.432 29.7496 229.126 30.9762 228.512 32.0296C227.912 33.0696 227.052 33.8762 225.932 34.4496C224.826 35.0229 223.539 35.3096 222.072 35.3096H217.192V21.3496H222.072ZM221.972 32.9296C223.439 32.9296 224.572 32.5296 225.372 31.7296C226.172 30.9296 226.572 29.8029 226.572 28.3496C226.572 26.8962 226.172 25.7629 225.372 24.9496C224.572 24.1229 223.439 23.7096 221.972 23.7096H219.992V32.9296H221.972ZM234.328 25.9496C234.688 25.3629 235.155 24.9029 235.728 24.5696C236.315 24.2362 236.981 24.0696 237.728 24.0696V27.0096H236.988C236.108 27.0096 235.441 27.2162 234.988 27.6296C234.548 28.0429 234.328 28.7629 234.328 29.7896V35.3096H231.528V24.2296H234.328V25.9496ZM250.074 24.2296V35.3096H247.254V33.9096C246.894 34.3896 246.421 34.7696 245.834 35.0496C245.261 35.3162 244.634 35.4496 243.954 35.4496C243.087 35.4496 242.321 35.2696 241.654 34.9096C240.987 34.5362 240.461 33.9962 240.074 33.2896C239.701 32.5696 239.514 31.7162 239.514 30.7296V24.2296H242.314V30.3296C242.314 31.2096 242.534 31.8896 242.974 32.3696C243.414 32.8362 244.014 33.0696 244.774 33.0696C245.547 33.0696 246.154 32.8362 246.594 32.3696C247.034 31.8896 247.254 31.2096 247.254 30.3296V24.2296H250.074ZM257.177 24.0496C258.003 24.0496 258.73 24.2162 259.357 24.5496C259.983 24.8696 260.477 25.2896 260.837 25.8096V24.2296H263.657V35.3896C263.657 36.4162 263.45 37.3296 263.037 38.1296C262.623 38.9429 262.003 39.5829 261.177 40.0496C260.35 40.5296 259.35 40.7696 258.177 40.7696C256.603 40.7696 255.31 40.4029 254.297 39.6696C253.297 38.9362 252.73 37.9362 252.597 36.6696H255.377C255.523 37.1762 255.837 37.5762 256.317 37.8696C256.81 38.1762 257.403 38.3296 258.097 38.3296C258.91 38.3296 259.57 38.0829 260.077 37.5896C260.583 37.1096 260.837 36.3762 260.837 35.3896V33.6696C260.477 34.1896 259.977 34.6229 259.337 34.9696C258.71 35.3162 257.99 35.4896 257.177 35.4896C256.243 35.4896 255.39 35.2496 254.617 34.7696C253.843 34.2896 253.23 33.6162 252.777 32.7496C252.337 31.8696 252.117 30.8629 252.117 29.7296C252.117 28.6096 252.337 27.6162 252.777 26.7496C253.23 25.8829 253.837 25.2162 254.597 24.7496C255.37 24.2829 256.23 24.0496 257.177 24.0496ZM260.837 29.7696C260.837 29.0896 260.703 28.5096 260.437 28.0296C260.17 27.5362 259.81 27.1629 259.357 26.9096C258.903 26.6429 258.417 26.5096 257.897 26.5096C257.377 26.5096 256.897 26.6362 256.457 26.8896C256.017 27.1429 255.657 27.5162 255.377 28.0096C255.11 28.4896 254.977 29.0629 254.977 29.7296C254.977 30.3962 255.11 30.9829 255.377 31.4896C255.657 31.9829 256.017 32.3629 256.457 32.6296C256.91 32.8962 257.39 33.0296 257.897 33.0296C258.417 33.0296 258.903 32.9029 259.357 32.6496C259.81 32.3829 260.17 32.0096 260.437 31.5296C260.703 31.0362 260.837 30.4496 260.837 29.7696ZM276.037 21.3496C277.504 21.3496 278.79 21.6362 279.897 22.2096C281.017 22.7829 281.877 23.6029 282.477 24.6696C283.09 25.7229 283.397 26.9496 283.397 28.3496C283.397 29.7496 283.09 30.9762 282.477 32.0296C281.877 33.0696 281.017 33.8762 279.897 34.4496C278.79 35.0229 277.504 35.3096 276.037 35.3096H271.157V21.3496H276.037ZM275.937 32.9296C277.404 32.9296 278.537 32.5296 279.337 31.7296C280.137 30.9296 280.537 29.8029 280.537 28.3496C280.537 26.8962 280.137 25.7629 279.337 24.9496C278.537 24.1229 277.404 23.7096 275.937 23.7096H273.957V32.9296H275.937ZM295.793 29.5296C295.793 29.9296 295.766 30.2896 295.713 30.6096H287.613C287.68 31.4096 287.96 32.0362 288.453 32.4896C288.946 32.9429 289.553 33.1696 290.273 33.1696C291.313 33.1696 292.053 32.7229 292.493 31.8296H295.513C295.193 32.8962 294.58 33.7762 293.673 34.4696C292.766 35.1496 291.653 35.4896 290.333 35.4896C289.266 35.4896 288.306 35.2562 287.453 34.7896C286.613 34.3096 285.953 33.6362 285.473 32.7696C285.006 31.9029 284.773 30.9029 284.773 29.7696C284.773 28.6229 285.006 27.6162 285.473 26.7496C285.94 25.8829 286.593 25.2162 287.433 24.7496C288.273 24.2829 289.24 24.0496 290.333 24.0496C291.386 24.0496 292.326 24.2762 293.153 24.7296C293.993 25.1829 294.64 25.8296 295.093 26.6696C295.56 27.4962 295.793 28.4496 295.793 29.5296ZM292.893 28.7296C292.88 28.0096 292.62 27.4362 292.113 27.0096C291.606 26.5696 290.986 26.3496 290.253 26.3496C289.56 26.3496 288.973 26.5629 288.493 26.9896C288.026 27.4029 287.74 27.9829 287.633 28.7296H292.893ZM306.357 26.9896V29.3496H297.877V26.9896H306.357ZM308.777 29.7296C308.777 28.6096 308.997 27.6162 309.437 26.7496C309.89 25.8829 310.497 25.2162 311.257 24.7496C312.03 24.2829 312.89 24.0496 313.837 24.0496C314.664 24.0496 315.384 24.2162 315.997 24.5496C316.624 24.8829 317.124 25.3029 317.497 25.8096V24.2296H320.317V35.3096H317.497V33.6896C317.137 34.2096 316.637 34.6429 315.997 34.9896C315.37 35.3229 314.644 35.4896 313.817 35.4896C312.884 35.4896 312.03 35.2496 311.257 34.7696C310.497 34.2896 309.89 33.6162 309.437 32.7496C308.997 31.8696 308.777 30.8629 308.777 29.7296ZM317.497 29.7696C317.497 29.0896 317.364 28.5096 317.097 28.0296C316.83 27.5362 316.47 27.1629 316.017 26.9096C315.564 26.6429 315.077 26.5096 314.557 26.5096C314.037 26.5096 313.557 26.6362 313.117 26.8896C312.677 27.1429 312.317 27.5162 312.037 28.0096C311.77 28.4896 311.637 29.0629 311.637 29.7296C311.637 30.3962 311.77 30.9829 312.037 31.4896C312.317 31.9829 312.677 32.3629 313.117 32.6296C313.57 32.8962 314.05 33.0296 314.557 33.0296C315.077 33.0296 315.564 32.9029 316.017 32.6496C316.47 32.3829 316.83 32.0096 317.097 31.5296C317.364 31.0362 317.497 30.4496 317.497 29.7696ZM322.332 29.7296C322.332 28.6096 322.552 27.6162 322.992 26.7496C323.445 25.8829 324.058 25.2162 324.832 24.7496C325.605 24.2829 326.465 24.0496 327.412 24.0496C328.132 24.0496 328.818 24.2096 329.472 24.5296C330.125 24.8362 330.645 25.2496 331.032 25.7696V20.5096H333.872V35.3096H331.032V33.6696C330.685 34.2162 330.198 34.6562 329.572 34.9896C328.945 35.3229 328.218 35.4896 327.392 35.4896C326.458 35.4896 325.605 35.2496 324.832 34.7696C324.058 34.2896 323.445 33.6162 322.992 32.7496C322.552 31.8696 322.332 30.8629 322.332 29.7296ZM331.052 29.7696C331.052 29.0896 330.918 28.5096 330.652 28.0296C330.385 27.5362 330.025 27.1629 329.572 26.9096C329.118 26.6429 328.632 26.5096 328.112 26.5096C327.592 26.5096 327.112 26.6362 326.672 26.8896C326.232 27.1429 325.872 27.5162 325.592 28.0096C325.325 28.4896 325.192 29.0629 325.192 29.7296C325.192 30.3962 325.325 30.9829 325.592 31.4896C325.872 31.9829 326.232 32.3629 326.672 32.6296C327.125 32.8962 327.605 33.0296 328.112 33.0296C328.632 33.0296 329.118 32.9029 329.572 32.6496C330.025 32.3829 330.385 32.0096 330.652 31.5296C330.918 31.0362 331.052 30.4496 331.052 29.7696ZM335.886 29.7296C335.886 28.6096 336.106 27.6162 336.546 26.7496C337 25.8829 337.613 25.2162 338.386 24.7496C339.16 24.2829 340.02 24.0496 340.966 24.0496C341.686 24.0496 342.373 24.2096 343.026 24.5296C343.68 24.8362 344.2 25.2496 344.586 25.7696V20.5096H347.426V35.3096H344.586V33.6696C344.24 34.2162 343.753 34.6562 343.126 34.9896C342.5 35.3229 341.773 35.4896 340.946 35.4896C340.013 35.4896 339.16 35.2496 338.386 34.7696C337.613 34.2896 337 33.6162 336.546 32.7496C336.106 31.8696 335.886 30.8629 335.886 29.7296ZM344.606 29.7696C344.606 29.0896 344.473 28.5096 344.206 28.0296C343.94 27.5362 343.58 27.1629 343.126 26.9096C342.673 26.6429 342.186 26.5096 341.666 26.5096C341.146 26.5096 340.666 26.6362 340.226 26.8896C339.786 27.1429 339.426 27.5162 339.146 28.0096C338.88 28.4896 338.746 29.0629 338.746 29.7296C338.746 30.3962 338.88 30.9829 339.146 31.4896C339.426 31.9829 339.786 32.3629 340.226 32.6296C340.68 32.8962 341.16 33.0296 341.666 33.0296C342.186 33.0296 342.673 32.9029 343.126 32.6496C343.58 32.3829 343.94 32.0096 344.206 31.5296C344.473 31.0362 344.606 30.4496 344.606 29.7696ZM351.581 22.9096C351.088 22.9096 350.674 22.7562 350.341 22.4496C350.021 22.1296 349.861 21.7362 349.861 21.2696C349.861 20.8029 350.021 20.4162 350.341 20.1096C350.674 19.7896 351.088 19.6296 351.581 19.6296C352.074 19.6296 352.481 19.7896 352.801 20.1096C353.134 20.4162 353.301 20.8029 353.301 21.2696C353.301 21.7362 353.134 22.1296 352.801 22.4496C352.481 22.7562 352.074 22.9096 351.581 22.9096ZM352.961 24.2296V35.3096H350.161V24.2296H352.961ZM355.007 29.7696C355.007 28.6229 355.241 27.6229 355.707 26.7696C356.174 25.9029 356.821 25.2362 357.647 24.7696C358.474 24.2896 359.421 24.0496 360.487 24.0496C361.861 24.0496 362.994 24.3962 363.887 25.0896C364.794 25.7696 365.401 26.7296 365.707 27.9696H362.687C362.527 27.4896 362.254 27.1162 361.867 26.8496C361.494 26.5696 361.027 26.4296 360.467 26.4296C359.667 26.4296 359.034 26.7229 358.567 27.3096C358.101 27.8829 357.867 28.7029 357.867 29.7696C357.867 30.8229 358.101 31.6429 358.567 32.2296C359.034 32.8029 359.667 33.0896 360.467 33.0896C361.601 33.0896 362.341 32.5829 362.687 31.5696H365.707C365.401 32.7696 364.794 33.7229 363.887 34.4296C362.981 35.1362 361.847 35.4896 360.487 35.4896C359.421 35.4896 358.474 35.2562 357.647 34.7896C356.821 34.3096 356.174 33.6429 355.707 32.7896C355.241 31.9229 355.007 30.9162 355.007 29.7696ZM371.019 26.5296V31.8896C371.019 32.2629 371.105 32.5362 371.279 32.7096C371.465 32.8696 371.772 32.9496 372.199 32.9496H373.499V35.3096H371.739C369.379 35.3096 368.199 34.1629 368.199 31.8696V26.5296H366.879V24.2296H368.199V21.4896H371.019V24.2296H373.499V26.5296H371.019ZM376.933 22.9096C376.439 22.9096 376.026 22.7562 375.693 22.4496C375.373 22.1296 375.213 21.7362 375.213 21.2696C375.213 20.8029 375.373 20.4162 375.693 20.1096C376.026 19.7896 376.439 19.6296 376.933 19.6296C377.426 19.6296 377.833 19.7896 378.153 20.1096C378.486 20.4162 378.653 20.8029 378.653 21.2696C378.653 21.7362 378.486 22.1296 378.153 22.4496C377.833 22.7562 377.426 22.9096 376.933 22.9096ZM378.313 24.2296V35.3096H375.513V24.2296H378.313ZM385.999 35.4896C384.932 35.4896 383.972 35.2562 383.119 34.7896C382.266 34.3096 381.592 33.6362 381.099 32.7696C380.619 31.9029 380.379 30.9029 380.379 29.7696C380.379 28.6362 380.626 27.6362 381.119 26.7696C381.626 25.9029 382.312 25.2362 383.179 24.7696C384.046 24.2896 385.012 24.0496 386.079 24.0496C387.146 24.0496 388.112 24.2896 388.979 24.7696C389.846 25.2362 390.526 25.9029 391.019 26.7696C391.526 27.6362 391.779 28.6362 391.779 29.7696C391.779 30.9029 391.519 31.9029 390.999 32.7696C390.492 33.6362 389.799 34.3096 388.919 34.7896C388.052 35.2562 387.079 35.4896 385.999 35.4896ZM385.999 33.0496C386.506 33.0496 386.979 32.9296 387.419 32.6896C387.872 32.4362 388.232 32.0629 388.499 31.5696C388.766 31.0762 388.899 30.4762 388.899 29.7696C388.899 28.7162 388.619 27.9096 388.059 27.3496C387.512 26.7762 386.839 26.4896 386.039 26.4896C385.239 26.4896 384.566 26.7762 384.019 27.3496C383.486 27.9096 383.219 28.7162 383.219 29.7696C383.219 30.8229 383.479 31.6362 383.999 32.2096C384.532 32.7696 385.199 33.0496 385.999 33.0496ZM399.973 24.0696C401.293 24.0696 402.36 24.4896 403.173 25.3296C403.986 26.1562 404.393 27.3162 404.393 28.8096V35.3096H401.593V29.1896C401.593 28.3096 401.373 27.6362 400.933 27.1696C400.493 26.6896 399.893 26.4496 399.133 26.4496C398.36 26.4496 397.746 26.6896 397.293 27.1696C396.853 27.6362 396.633 28.3096 396.633 29.1896V35.3096H393.833V24.2296H396.633V25.6096C397.006 25.1296 397.48 24.7562 398.053 24.4896C398.64 24.2096 399.28 24.0696 399.973 24.0696ZM423.401 21.3496V35.3096H420.601V29.3696H414.621V35.3096H411.821V21.3496H414.621V27.0896H420.601V21.3496H423.401ZM436.457 29.5296C436.457 29.9296 436.43 30.2896 436.377 30.6096H428.277C428.344 31.4096 428.624 32.0362 429.117 32.4896C429.61 32.9429 430.217 33.1696 430.937 33.1696C431.977 33.1696 432.717 32.7229 433.157 31.8296H436.177C435.857 32.8962 435.244 33.7762 434.337 34.4696C433.43 35.1496 432.317 35.4896 430.997 35.4896C429.93 35.4896 428.97 35.2562 428.117 34.7896C427.277 34.3096 426.617 33.6362 426.137 32.7696C425.67 31.9029 425.437 30.9029 425.437 29.7696C425.437 28.6229 425.67 27.6162 426.137 26.7496C426.604 25.8829 427.257 25.2162 428.097 24.7496C428.937 24.2829 429.904 24.0496 430.997 24.0496C432.05 24.0496 432.99 24.2762 433.817 24.7296C434.657 25.1829 435.304 25.8296 435.757 26.6696C436.224 27.4962 436.457 28.4496 436.457 29.5296ZM433.557 28.7296C433.544 28.0096 433.284 27.4362 432.777 27.0096C432.27 26.5696 431.65 26.3496 430.917 26.3496C430.224 26.3496 429.637 26.5629 429.157 26.9896C428.69 27.4029 428.404 27.9829 428.297 28.7296H433.557ZM441.301 20.5096V35.3096H438.501V20.5096H441.301ZM446.867 25.8296C447.227 25.3229 447.721 24.9029 448.347 24.5696C448.987 24.2229 449.714 24.0496 450.527 24.0496C451.474 24.0496 452.327 24.2829 453.087 24.7496C453.861 25.2162 454.467 25.8829 454.907 26.7496C455.361 27.6029 455.587 28.5962 455.587 29.7296C455.587 30.8629 455.361 31.8696 454.907 32.7496C454.467 33.6162 453.861 34.2896 453.087 34.7696C452.327 35.2496 451.474 35.4896 450.527 35.4896C449.714 35.4896 448.994 35.3229 448.367 34.9896C447.754 34.6562 447.254 34.2362 446.867 33.7296V40.5896H444.067V24.2296H446.867V25.8296ZM452.727 29.7296C452.727 29.0629 452.587 28.4896 452.307 28.0096C452.041 27.5162 451.681 27.1429 451.227 26.8896C450.787 26.6362 450.307 26.5096 449.787 26.5096C449.281 26.5096 448.801 26.6429 448.347 26.9096C447.907 27.1629 447.547 27.5362 447.267 28.0296C447.001 28.5229 446.867 29.1029 446.867 29.7696C446.867 30.4362 447.001 31.0162 447.267 31.5096C447.547 32.0029 447.907 32.3829 448.347 32.6496C448.801 32.9029 449.281 33.0296 449.787 33.0296C450.307 33.0296 450.787 32.8962 451.227 32.6296C451.681 32.3629 452.041 31.9829 452.307 31.4896C452.587 30.9962 452.727 30.4096 452.727 29.7296ZM460.422 20.5096V35.3096H457.622V20.5096H460.422ZM464.608 22.9096C464.115 22.9096 463.702 22.7562 463.368 22.4496C463.048 22.1296 462.888 21.7362 462.888 21.2696C462.888 20.8029 463.048 20.4162 463.368 20.1096C463.702 19.7896 464.115 19.6296 464.608 19.6296C465.102 19.6296 465.508 19.7896 465.828 20.1096C466.162 20.4162 466.328 20.8029 466.328 21.2696C466.328 21.7362 466.162 22.1296 465.828 22.4496C465.508 22.7562 465.102 22.9096 464.608 22.9096ZM465.988 24.2296V35.3096H463.188V24.2296H465.988ZM474.895 24.0696C476.215 24.0696 477.281 24.4896 478.095 25.3296C478.908 26.1562 479.315 27.3162 479.315 28.8096V35.3096H476.515V29.1896C476.515 28.3096 476.295 27.6362 475.855 27.1696C475.415 26.6896 474.815 26.4496 474.055 26.4496C473.281 26.4496 472.668 26.6896 472.215 27.1696C471.775 27.6362 471.555 28.3096 471.555 29.1896V35.3096H468.755V24.2296H471.555V25.6096C471.928 25.1296 472.401 24.7562 472.975 24.4896C473.561 24.2096 474.201 24.0696 474.895 24.0696ZM492.277 29.5296C492.277 29.9296 492.251 30.2896 492.197 30.6096H484.097C484.164 31.4096 484.444 32.0362 484.937 32.4896C485.431 32.9429 486.037 33.1696 486.757 33.1696C487.797 33.1696 488.537 32.7229 488.977 31.8296H491.997C491.677 32.8962 491.064 33.7762 490.157 34.4696C489.251 35.1496 488.137 35.4896 486.817 35.4896C485.751 35.4896 484.791 35.2562 483.937 34.7896C483.097 34.3096 482.437 33.6362 481.957 32.7696C481.491 31.9029 481.257 30.9029 481.257 29.7696C481.257 28.6229 481.491 27.6162 481.957 26.7496C482.424 25.8829 483.077 25.2162 483.917 24.7496C484.757 24.2829 485.724 24.0496 486.817 24.0496C487.871 24.0496 488.811 24.2762 489.637 24.7296C490.477 25.1829 491.124 25.8296 491.577 26.6696C492.044 27.4962 492.277 28.4496 492.277 29.5296ZM489.377 28.7296C489.364 28.0096 489.104 27.4362 488.597 27.0096C488.091 26.5696 487.471 26.3496 486.737 26.3496C486.044 26.3496 485.457 26.5629 484.977 26.9896C484.511 27.4029 484.224 27.9829 484.117 28.7296H489.377Z" fill="#FBEEEE"/>
<path d="M305.323 48.0554V74.2372H299.788V53.3097H299.634L293.638 57.0682V52.1591L300.12 48.0554H305.323ZM311.149 69.635V65.2756L322.08 48.0554H325.838V54.0895H323.614L316.723 64.9943V65.1989H332.256V69.635H311.149ZM323.716 74.2372V68.3054L323.818 66.375V48.0554H329.009V74.2372H323.716ZM335.548 69.635V65.2756L346.478 48.0554H350.237V54.0895H348.012L341.122 64.9943V65.1989H356.654V69.635H335.548ZM348.115 74.2372V68.3054L348.217 66.375V48.0554H353.407V74.2372H348.115ZM359.946 69.635V65.2756L370.877 48.0554H374.635V54.0895H372.411L365.52 64.9943V65.1989H381.053V69.635H359.946ZM372.513 74.2372V68.3054L372.615 66.375V48.0554H377.806V74.2372H372.513ZM394.789 74.5952C393.443 74.5867 392.143 74.3608 390.89 73.9176C389.646 73.4744 388.529 72.7543 387.541 71.7571C386.552 70.76 385.768 69.4389 385.188 67.794C384.617 66.1492 384.332 64.1293 384.332 61.7344C384.34 59.5355 384.592 57.571 385.086 55.8409C385.589 54.1023 386.305 52.6279 387.234 51.4176C388.171 50.2074 389.292 49.2869 390.596 48.6563C391.9 48.0171 393.362 47.6975 394.981 47.6975C396.728 47.6975 398.271 48.0384 399.609 48.7202C400.947 49.3935 402.021 50.3097 402.831 51.4688C403.649 52.6279 404.143 53.9276 404.313 55.3679H398.855C398.642 54.456 398.194 53.7401 397.512 53.2202C396.831 52.7003 395.987 52.4404 394.981 52.4404C393.277 52.4404 391.981 53.1818 391.095 54.6648C390.217 56.1477 389.769 58.1634 389.752 60.7117H389.931C390.323 59.9361 390.852 59.2756 391.517 58.7301C392.19 58.1761 392.953 57.7543 393.805 57.4645C394.666 57.1662 395.573 57.0171 396.528 57.0171C398.079 57.0171 399.46 57.3835 400.67 58.1165C401.88 58.8409 402.835 59.8381 403.534 61.108C404.233 62.3779 404.582 63.831 404.582 65.4673C404.582 67.2401 404.169 68.8168 403.342 70.1975C402.524 71.5781 401.377 72.6605 399.903 73.4446C398.437 74.2202 396.733 74.6037 394.789 74.5952ZM394.764 70.2486C395.616 70.2486 396.379 70.044 397.052 69.635C397.725 69.2259 398.254 68.6719 398.637 67.973C399.021 67.2742 399.213 66.4901 399.213 65.6208C399.213 64.7514 399.021 63.9716 398.637 63.2813C398.262 62.5909 397.742 62.0412 397.078 61.6321C396.413 61.223 395.654 61.0185 394.802 61.0185C394.163 61.0185 393.571 61.1378 393.025 61.3764C392.488 61.6151 392.015 61.9475 391.606 62.3736C391.206 62.7997 390.89 63.294 390.66 63.8565C390.43 64.4105 390.315 65.0029 390.315 65.6335C390.315 66.4773 390.507 67.2486 390.89 67.9475C391.282 68.6463 391.811 69.2046 392.475 69.6222C393.149 70.0398 393.912 70.2486 394.764 70.2486Z" fill="#FBEEEE"/>
</g>
<rect x="277" y="79" width="147" height="37" rx="18.5" fill="white"/>
<path d="M298.916 98.96C298.916 97.5733 299.216 96.34 299.816 95.26C300.416 94.1667 301.249 93.32 302.316 92.72C303.396 92.1067 304.616 91.8 305.976 91.8C307.643 91.8 309.069 92.24 310.256 93.12C311.443 94 312.236 95.2 312.636 96.72H308.876C308.596 96.1333 308.196 95.6867 307.676 95.38C307.169 95.0733 306.589 94.92 305.936 94.92C304.883 94.92 304.029 95.2867 303.376 96.02C302.723 96.7533 302.396 97.7333 302.396 98.96C302.396 100.187 302.723 101.167 303.376 101.9C304.029 102.633 304.883 103 305.936 103C306.589 103 307.169 102.847 307.676 102.54C308.196 102.233 308.596 101.787 308.876 101.2H312.636C312.236 102.72 311.443 103.92 310.256 104.8C309.069 105.667 307.643 106.1 305.976 106.1C304.616 106.1 303.396 105.8 302.316 105.2C301.249 104.587 300.416 103.74 299.816 102.66C299.216 101.58 298.916 100.347 298.916 98.96ZM314.05 100.4C314.05 99.2533 314.264 98.2467 314.69 97.38C315.13 96.5133 315.724 95.8467 316.47 95.38C317.217 94.9133 318.05 94.68 318.97 94.68C319.757 94.68 320.444 94.84 321.03 95.16C321.63 95.48 322.09 95.9 322.41 96.42V94.84H325.83V106H322.41V104.42C322.077 104.94 321.61 105.36 321.01 105.68C320.424 106 319.737 106.16 318.95 106.16C318.044 106.16 317.217 105.927 316.47 105.46C315.724 104.98 315.13 104.307 314.69 103.44C314.264 102.56 314.05 101.547 314.05 100.4ZM322.41 100.42C322.41 99.5667 322.17 98.8933 321.69 98.4C321.224 97.9067 320.65 97.66 319.97 97.66C319.29 97.66 318.71 97.9067 318.23 98.4C317.764 98.88 317.53 99.5467 317.53 100.4C317.53 101.253 317.764 101.933 318.23 102.44C318.71 102.933 319.29 103.18 319.97 103.18C320.65 103.18 321.224 102.933 321.69 102.44C322.17 101.947 322.41 101.273 322.41 100.42ZM331.724 91.2V106H328.304V91.2H331.724ZM337.623 91.2V106H334.203V91.2H337.623ZM350.56 103.1V106H348.82C347.58 106 346.613 105.7 345.92 105.1C345.226 104.487 344.88 103.493 344.88 102.12V97.68H343.52V94.84H344.88V92.12H348.3V94.84H350.54V97.68H348.3V102.16C348.3 102.493 348.38 102.733 348.54 102.88C348.7 103.027 348.966 103.1 349.34 103.1H350.56ZM357.545 106.16C356.451 106.16 355.465 105.927 354.585 105.46C353.718 104.993 353.031 104.327 352.525 103.46C352.031 102.593 351.785 101.58 351.785 100.42C351.785 99.2733 352.038 98.2667 352.545 97.4C353.051 96.52 353.745 95.8467 354.625 95.38C355.505 94.9133 356.491 94.68 357.585 94.68C358.678 94.68 359.665 94.9133 360.545 95.38C361.425 95.8467 362.118 96.52 362.625 97.4C363.131 98.2667 363.385 99.2733 363.385 100.42C363.385 101.567 363.125 102.58 362.605 103.46C362.098 104.327 361.398 104.993 360.505 105.46C359.625 105.927 358.638 106.16 357.545 106.16ZM357.545 103.2C358.198 103.2 358.751 102.96 359.205 102.48C359.671 102 359.905 101.313 359.905 100.42C359.905 99.5267 359.678 98.84 359.225 98.36C358.785 97.88 358.238 97.64 357.585 97.64C356.918 97.64 356.365 97.88 355.925 98.36C355.485 98.8267 355.265 99.5133 355.265 100.42C355.265 101.313 355.478 102 355.905 102.48C356.345 102.96 356.891 103.2 357.545 103.2ZM364.519 100.4C364.519 99.2533 364.732 98.2467 365.159 97.38C365.599 96.5133 366.192 95.8467 366.939 95.38C367.686 94.9133 368.519 94.68 369.439 94.68C370.172 94.68 370.839 94.8333 371.439 95.14C372.052 95.4467 372.532 95.86 372.879 96.38V91.2H376.299V106H372.879V104.4C372.559 104.933 372.099 105.36 371.499 105.68C370.912 106 370.226 106.16 369.439 106.16C368.519 106.16 367.686 105.927 366.939 105.46C366.192 104.98 365.599 104.307 365.159 103.44C364.732 102.56 364.519 101.547 364.519 100.4ZM372.879 100.42C372.879 99.5667 372.639 98.8933 372.159 98.4C371.692 97.9067 371.119 97.66 370.439 97.66C369.759 97.66 369.179 97.9067 368.699 98.4C368.232 98.88 367.999 99.5467 367.999 100.4C367.999 101.253 368.232 101.933 368.699 102.44C369.179 102.933 369.759 103.18 370.439 103.18C371.119 103.18 371.692 102.933 372.159 102.44C372.639 101.947 372.879 101.273 372.879 100.42ZM378.093 100.4C378.093 99.2533 378.307 98.2467 378.733 97.38C379.173 96.5133 379.767 95.8467 380.513 95.38C381.26 94.9133 382.093 94.68 383.013 94.68C383.8 94.68 384.487 94.84 385.073 95.16C385.673 95.48 386.133 95.9 386.453 96.42V94.84H389.873V106H386.453V104.42C386.12 104.94 385.653 105.36 385.053 105.68C384.467 106 383.78 106.16 382.993 106.16C382.087 106.16 381.26 105.927 380.513 105.46C379.767 104.98 379.173 104.307 378.733 103.44C378.307 102.56 378.093 101.547 378.093 100.4ZM386.453 100.42C386.453 99.5667 386.213 98.8933 385.733 98.4C385.267 97.9067 384.693 97.66 384.013 97.66C383.333 97.66 382.753 97.9067 382.273 98.4C381.807 98.88 381.573 99.5467 381.573 100.4C381.573 101.253 381.807 101.933 382.273 102.44C382.753 102.933 383.333 103.18 384.013 103.18C384.693 103.18 385.267 102.933 385.733 102.44C386.213 101.947 386.453 101.273 386.453 100.42ZM403.747 94.84L396.747 111.3H393.067L395.627 105.62L391.087 94.84H394.907L397.487 101.82L400.047 94.84H403.747Z" fill="#E6332A"/>
<defs>
<clipPath id="clip0_3_448">
<rect width="586.105" height="104.399" fill="white"/>
</clipPath>
</defs>
</svg>
