<svg width="28" height="28" viewBox="0 0 28 28" fill="none" xmlns="http://www.w3.org/2000/svg">
<path d="M15.9076 2.20106C16.0117 2.20106 16.0716 2.20544 16.0716 2.20544H18.3567L18.3449 4.83044H16.0751C14.8261 4.83044 14.8549 5.89704 14.8549 5.89704V10.0585H19.2746L18.6577 12.68H14.8405V25.7989H12.2181L12.2164 12.68H8.73255L8.72555 10.0585H12.2177V5.97929C12.2181 2.42241 15.1721 2.20106 15.9076 2.20106ZM15.9076 0.451035C15.2784 0.451035 14.049 0.555187 12.8844 1.25694C11.7819 1.92019 10.4681 3.2786 10.4681 5.97888V8.3081H8.72594C8.26088 8.3081 7.81506 8.4936 7.48606 8.82263C7.32351 8.98583 7.19477 9.17952 7.10723 9.39258C7.0197 9.60565 6.97509 9.8339 6.97596 10.0642L6.98296 12.6858C6.98646 13.6496 7.76915 14.4296 8.73296 14.4296H10.4668L10.4685 25.7985C10.4685 26.7649 11.2521 27.5485 12.2185 27.5485H14.8409C15.8073 27.5485 16.5909 26.7649 16.5909 25.7985V14.4296H18.6581C19.4347 14.4296 20.1185 13.9178 20.3372 13.1727L20.9541 10.5512C21.1094 10.0223 21.0061 9.45047 20.6754 9.00988C20.5127 8.79201 20.3013 8.61512 20.0582 8.4933C19.8151 8.37147 19.5469 8.30806 19.2749 8.30813H16.6053V6.58131L18.3452 6.58044C19.3082 6.58044 20.0909 5.80212 20.0952 4.83831L20.107 2.30212C20.1088 2.26993 20.1097 2.23768 20.1097 2.20544C20.1097 1.239 19.3279 0.455437 18.3615 0.455437H16.121C16.0707 0.452812 15.9981 0.451062 15.9076 0.451035Z" fill="white"/>
</svg>
