<svg width="32" height="32" viewBox="0 0 32 32" fill="none" xmlns="http://www.w3.org/2000/svg">
<path d="M24 4H8C5.73333 4 4 5.73333 4 8V24C4 26.2667 5.73333 28 8 28H24C26.2667 28 28 26.2667 28 24V8C28 5.73333 26.2667 4 24 4ZM16 12C18.2667 12 20 13.7333 20 16C20 18.2667 18.2667 20 16 20C13.7333 20 12 18.2667 12 16C12 13.7333 13.7333 12 16 12ZM21.0667 9.33333C21.0667 8.4 21.8667 7.73333 22.6667 7.73333C23.4667 7.73333 24.2667 8.53333 24.2667 9.33333C24.2667 10.1333 23.6 10.9333 22.6667 10.9333C21.7333 10.9333 21.0667 10.2667 21.0667 9.33333ZM24 25.3333H8C7.2 25.3333 6.66667 24.8 6.66667 24V16H9.33333C9.33333 19.7333 12.2667 22.6667 16 22.6667C19.7333 22.6667 22.6667 19.7333 22.6667 16H25.3333V24C25.3333 24.8 24.8 25.3333 24 25.3333Z" fill="white"/>
</svg>
