<svg width="45" height="41" viewBox="0 0 45 41" fill="none" xmlns="http://www.w3.org/2000/svg">
<path d="M39.48 20.5H35.73C35.2327 20.5 34.7558 20.68 34.4042 21.0004C34.0525 21.3207 33.855 21.7553 33.855 22.2083C33.855 22.6614 34.0525 23.0959 34.4042 23.4163C34.7558 23.7367 35.2327 23.9167 35.73 23.9167V27.3333H33.5062C33.7277 26.786 33.845 26.2083 33.8531 25.625C33.8531 24.4969 33.4444 23.4002 32.6906 22.5052C31.9369 21.6102 30.88 20.9669 29.684 20.6749C28.488 20.3829 27.2196 20.4586 26.0757 20.8903C24.9317 21.322 23.976 22.0855 23.3569 23.0625C23.2318 23.2569 23.1502 23.4718 23.1167 23.6951C23.0832 23.9183 23.0985 24.1453 23.1617 24.3631C23.2249 24.5809 23.3347 24.7852 23.4849 24.9642C23.6351 25.1432 23.8227 25.2933 24.0369 25.4059C24.251 25.5186 24.4875 25.5915 24.7327 25.6206C24.9779 25.6496 25.227 25.6342 25.4657 25.5751C25.7043 25.5161 25.9278 25.4147 26.1232 25.2766C26.3186 25.1386 26.4821 24.9667 26.6044 24.7708C26.7689 24.5111 27.0056 24.2955 27.2906 24.1456C27.5757 23.9956 27.899 23.9167 28.2281 23.9167C28.7254 23.9167 29.2023 24.0967 29.5539 24.417C29.9056 24.7374 30.1031 25.1719 30.1031 25.625C30.1031 26.0781 29.9056 26.5126 29.5539 26.833C29.2023 27.1533 28.7254 27.3333 28.2281 27.3333C27.7308 27.3333 27.2539 27.5133 26.9023 27.8337C26.5506 28.1541 26.3531 28.5886 26.3531 29.0417C26.3531 29.4947 26.5506 29.9293 26.9023 30.2496C27.2539 30.57 27.7308 30.75 28.2281 30.75C28.7254 30.75 29.2023 30.93 29.5539 31.2504C29.9056 31.5707 30.1031 32.0053 30.1031 32.4583C30.1031 32.9114 29.9056 33.3459 29.5539 33.6663C29.2023 33.9867 28.7254 34.1667 28.2281 34.1667C27.899 34.1667 27.5757 34.0877 27.2906 33.9378C27.0056 33.7878 26.7689 33.5722 26.6044 33.3125C26.4821 33.1166 26.3186 32.9448 26.1232 32.8067C25.9278 32.6687 25.7043 32.5672 25.4657 32.5082C25.227 32.4492 24.9779 32.4337 24.7327 32.4628C24.4875 32.4918 24.251 32.5648 24.0369 32.6774C23.8227 32.7901 23.6351 32.9402 23.4849 33.1192C23.3347 33.2981 23.2249 33.5024 23.1617 33.7202C23.0985 33.938 23.0832 34.1651 23.1167 34.3883C23.1502 34.6115 23.2318 34.8265 23.3569 35.0208C23.976 35.9978 24.9317 36.7614 26.0757 37.193C27.2196 37.6247 28.488 37.7005 29.684 37.4085C30.88 37.1165 31.9369 36.4731 32.6906 35.5781C33.4444 34.6831 33.8531 33.5865 33.8531 32.4583C33.845 31.8751 33.7277 31.2973 33.5062 30.75H35.7281V35.875C35.7281 36.3281 35.9256 36.7626 36.2773 37.083C36.6289 37.4034 37.1058 37.5833 37.6031 37.5833C38.1004 37.5833 38.5773 37.4034 38.9289 37.083C39.2806 36.7626 39.4781 36.3281 39.4781 35.875V23.9167C39.9754 23.9167 40.4523 23.7367 40.8039 23.4163C41.1556 23.0959 41.3531 22.6614 41.3531 22.2083C41.3531 21.7553 41.1556 21.3207 40.8039 21.0004C40.4523 20.68 39.9773 20.5 39.48 20.5ZM17.0344 19.2068C17.0928 19.4258 17.1981 19.6321 17.3444 19.8138C17.4907 19.9956 17.675 20.1491 17.8867 20.2657C18.0984 20.3822 18.3334 20.4594 18.578 20.4929C18.8226 20.5264 19.0721 20.5154 19.312 20.4606C19.5519 20.4059 19.7776 20.3084 19.976 20.1738C20.1744 20.0392 20.3417 19.8702 20.4681 19.6765C20.5945 19.4828 20.6775 19.2682 20.7125 19.0451C20.7475 18.822 20.7337 18.5948 20.6719 18.3765L17.3775 6.36696C17.147 5.52336 16.6134 4.77425 15.8617 4.23889C15.1099 3.70353 14.1832 3.4127 13.229 3.4127C12.2749 3.4127 11.3482 3.70353 10.5964 4.23889C9.84464 4.77425 9.31106 5.52336 9.08061 6.36696L5.78436 18.3765C5.72254 18.5948 5.70872 18.822 5.74369 19.0451C5.77867 19.2682 5.86175 19.4828 5.98815 19.6765C6.11456 19.8702 6.28178 20.0392 6.48019 20.1738C6.6786 20.3084 6.90428 20.4059 7.14422 20.4606C7.38416 20.5154 7.63362 20.5264 7.87823 20.4929C8.12285 20.4594 8.35778 20.3822 8.56949 20.2657C8.7812 20.1491 8.96551 19.9956 9.1118 19.8138C9.25809 19.6321 9.36346 19.4258 9.42186 19.2068L10.4719 15.375H15.9844L17.0344 19.2068ZM11.4112 11.9583L12.7181 7.19721C12.7575 7.10259 12.8276 7.02113 12.919 6.96364C13.0104 6.90616 13.1189 6.87538 13.23 6.87538C13.3411 6.87538 13.4495 6.90616 13.5409 6.96364C13.6324 7.02113 13.7024 7.10259 13.7419 7.19721L15.0487 11.9583H11.4112ZM26.355 11.9583H28.23C28.7273 11.9583 29.2042 12.1383 29.5558 12.4587C29.9074 12.7791 30.105 13.2136 30.105 13.6667V15.375C30.105 15.8281 30.3025 16.2626 30.6542 16.583C31.0058 16.9033 31.4827 17.0833 31.98 17.0833C32.4773 17.0833 32.9542 16.9033 33.3058 16.583C33.6574 16.2626 33.855 15.8281 33.855 15.375V13.6667C33.8535 12.3078 33.2604 11.0051 32.2058 10.0442C31.1512 9.08341 29.7214 8.54302 28.23 8.54167H26.355C25.8577 8.54167 25.3808 8.72165 25.0292 9.04203C24.6775 9.3624 24.48 9.79692 24.48 10.25C24.48 10.7031 24.6775 11.1376 25.0292 11.458C25.3808 11.7783 25.8577 11.9583 26.355 11.9583ZM18.855 27.3333H16.98C16.4827 27.3333 16.0058 27.1533 15.6542 26.833C15.3025 26.5126 15.105 26.0781 15.105 25.625V23.9167C15.105 23.4636 14.9074 23.0291 14.5558 22.7087C14.2042 22.3883 13.7273 22.2083 13.23 22.2083C12.7327 22.2083 12.2558 22.3883 11.9042 22.7087C11.5525 23.0291 11.355 23.4636 11.355 23.9167V25.625C11.3565 26.9838 11.9496 28.2866 13.0042 29.2474C14.0587 30.2083 15.4886 30.7486 16.98 30.75H18.855C19.3523 30.75 19.8292 30.57 20.1808 30.2496C20.5324 29.9293 20.73 29.4947 20.73 29.0417C20.73 28.5886 20.5324 28.1541 20.1808 27.8337C19.8292 27.5133 19.3523 27.3333 18.855 27.3333Z" fill="white"/>
</svg>
