<svg width="33" height="33" viewBox="0 0 33 33" fill="none" xmlns="http://www.w3.org/2000/svg">
<path d="M27.5303 4.125H20.6553C20.2906 4.125 19.9409 4.26987 19.683 4.52773C19.4251 4.78559 19.2803 5.13533 19.2803 5.5C19.2803 5.86467 19.4251 6.21441 19.683 6.47227C19.9409 6.73013 20.2906 6.875 20.6553 6.875H22.7178V15.125H15.9115C16.8213 13.9419 17.317 12.4925 17.3223 11C17.3222 9.48663 16.8228 8.01557 15.9015 6.81496C14.9802 5.61434 13.6885 4.75126 12.2267 4.35957C10.7649 3.96788 9.21468 4.06946 7.8165 4.64856C6.41831 5.22766 5.25028 6.25192 4.49352 7.5625C4.39669 7.71903 4.33226 7.8934 4.30407 8.07529C4.27588 8.25717 4.28448 8.44287 4.32939 8.62136C4.37429 8.79986 4.45458 8.96753 4.56548 9.11442C4.67639 9.26131 4.81565 9.38444 4.97503 9.47652C5.1344 9.56859 5.31064 9.62772 5.4933 9.65042C5.67595 9.67311 5.8613 9.65891 6.03836 9.60864C6.21542 9.55837 6.38059 9.47307 6.52407 9.35778C6.66755 9.2425 6.78643 9.09958 6.87365 8.9375C7.23567 8.31047 7.75635 7.78977 8.38337 7.42773C9.01039 7.06568 9.72165 6.87506 10.4457 6.875C11.1697 6.87494 11.881 7.06546 12.5081 7.42741C13.1352 7.78935 13.6559 8.30997 14.018 8.93695C14.3802 9.56393 14.5709 10.2752 14.571 10.9992C14.5711 11.7232 14.3807 12.4346 14.0188 13.0617C13.657 13.6888 13.1364 14.2096 12.5095 14.5718C11.8825 14.934 11.1713 15.1248 10.4473 15.125C10.0826 15.125 9.73287 15.2699 9.475 15.5277C9.21714 15.7856 9.07228 16.1353 9.07228 16.5C9.07228 16.8647 9.21714 17.2144 9.475 17.4723C9.73287 17.7301 10.0826 17.875 10.4473 17.875C11.1713 17.8752 11.8825 18.066 12.5095 18.4282C13.1364 18.7904 13.657 19.3112 14.0188 19.9383C14.3807 20.5654 14.5711 21.2768 14.571 22.0008C14.5709 22.7248 14.3802 23.4361 14.018 24.0631C13.6559 24.69 13.1352 25.2106 12.5081 25.5726C11.881 25.9345 11.1697 26.1251 10.4457 26.125C9.72165 26.1249 9.01039 25.9343 8.38337 25.5723C7.75635 25.2102 7.23567 24.6895 6.87365 24.0625C6.68557 23.7585 6.38648 23.5397 6.03979 23.4525C5.6931 23.3652 5.32607 23.4165 5.01652 23.5953C4.70697 23.7741 4.47924 24.0665 4.38161 24.4104C4.28397 24.7543 4.32412 25.1227 4.49352 25.4375C5.25028 26.7481 6.41831 27.7723 7.8165 28.3514C9.21468 28.9305 10.7649 29.0321 12.2267 28.6404C13.6885 28.2487 14.9802 27.3857 15.9015 26.185C16.8228 24.9844 17.3222 23.5134 17.3223 22C17.317 20.5075 16.8213 19.0581 15.9115 17.875H22.7178V27.5C22.7178 27.8647 22.8626 28.2144 23.1205 28.4723C23.3784 28.7301 23.7281 28.875 24.0928 28.875C24.4574 28.875 24.8072 28.7301 25.065 28.4723C25.3229 28.2144 25.4678 27.8647 25.4678 27.5V6.875H27.5303C27.8949 6.875 28.2447 6.73013 28.5025 6.47227C28.7604 6.21441 28.9053 5.86467 28.9053 5.5C28.9053 5.13533 28.7604 4.78559 28.5025 4.52773C28.2447 4.26987 27.8949 4.125 27.5303 4.125Z" fill="white"/>
</svg>
