<svg width="38" height="38" viewBox="0 0 38 38" fill="none" xmlns="http://www.w3.org/2000/svg">
<path fill-rule="evenodd" clip-rule="evenodd" d="M16.0312 26.125C18.7082 26.125 21.2756 25.0616 23.1686 23.1686C25.0615 21.2757 26.1249 18.7083 26.1249 16.0313C26.1249 13.3542 25.0615 10.7868 23.1686 8.89389C21.2756 7.00095 18.7082 5.9375 16.0312 5.9375C13.3542 5.9375 10.7868 7.00095 8.89384 8.89389C7.00089 10.7868 5.93745 13.3542 5.93745 16.0313C5.93745 18.7083 7.00089 21.2757 8.89384 23.1686C10.7868 25.0616 13.3542 26.125 16.0312 26.125ZM16.0312 29.6875C19.0384 29.6915 21.9623 28.6994 24.3461 26.866L30.8037 33.3213C30.9668 33.4963 31.1634 33.6366 31.3819 33.734C31.6004 33.8313 31.8363 33.8837 32.0755 33.8879C32.3146 33.8921 32.5522 33.8481 32.774 33.7585C32.9958 33.669 33.1973 33.5356 33.3664 33.3665C33.5356 33.1973 33.6689 32.9958 33.7585 32.774C33.8481 32.5522 33.8921 32.3147 33.8879 32.0755C33.8836 31.8363 33.8313 31.6005 33.7339 31.382C33.6366 31.1635 33.4962 30.9668 33.3212 30.8038L26.8659 24.3461C28.743 21.9006 29.7373 18.892 29.6873 15.8096C29.6373 12.7273 28.5458 9.7525 26.5904 7.36922C24.635 4.98593 21.9308 3.33437 18.9176 2.68316C15.9044 2.03196 12.7595 2.41943 9.99442 3.78255C7.22938 5.14568 5.0069 7.40425 3.68849 10.1909C2.37007 12.9775 2.0333 16.1283 2.73296 19.1306C3.43261 22.1329 5.12752 24.8102 7.54198 26.727C9.95645 28.6437 12.9484 29.6871 16.0312 29.6875ZM11.2812 14.25C10.8088 14.25 10.3557 14.4377 10.0217 14.7717C9.68761 15.1058 9.49995 15.5588 9.49995 16.0313C9.49995 16.5037 9.68761 16.9567 10.0217 17.2908C10.3557 17.6248 10.8088 17.8125 11.2812 17.8125H20.7812C21.2536 17.8125 21.7067 17.6248 22.0407 17.2908C22.3748 16.9567 22.5624 16.5037 22.5624 16.0313C22.5624 15.5588 22.3748 15.1058 22.0407 14.7717C21.7067 14.4377 21.2536 14.25 20.7812 14.25H11.2812Z" fill="white"/>
</svg>
