<svg width="51" height="45" viewBox="0 0 51 45" fill="none" xmlns="http://www.w3.org/2000/svg">
<path d="M33.9699 44.9476C27.8046 44.9476 21.977 42.8363 17.6134 38.9862L6.80285 29.4479C2.43922 25.5978 0.0462646 20.4809 0.0462646 15.0162C0.0462646 9.57644 2.43922 4.45955 6.80285 0.584619C7.47851 -0.0115235 8.57645 -0.0115235 9.25211 0.584619L18.9929 9.17901C19.3025 9.45225 19.4996 9.84967 19.4996 10.2471C19.4996 10.6445 19.3307 11.042 18.9929 11.3152C17.8668 12.3088 17.2756 13.6004 17.2756 14.9914C17.2756 16.3824 17.8949 17.6989 18.9929 18.6676L29.8034 28.2059C32.0274 30.1682 35.9125 30.1682 38.1365 28.2059C38.784 27.6346 39.9383 27.6346 40.5858 28.2059L50.3265 36.8003C50.6362 37.0735 50.8333 37.471 50.8333 37.8684C50.8333 38.2658 50.6643 38.6632 50.3265 38.9365C45.9629 42.8114 40.1635 44.9476 33.9699 44.9476ZM8.09786 3.88825C5.1137 7.018 3.50901 10.9178 3.50901 15.0411C3.50901 19.686 5.56414 24.0329 9.28026 27.3117L20.0908 36.85C23.8069 40.1288 28.7336 41.9172 33.9981 41.9172C38.6714 41.9172 43.0913 40.5014 46.6385 37.8684L39.2908 31.3853C37.7424 32.3292 35.9125 32.826 34.0262 32.826C31.5207 32.826 29.184 31.9815 27.4104 30.4166L16.5999 20.8783C14.8263 19.3134 13.8691 17.2518 13.8691 15.0411C13.8691 13.352 14.4322 11.7375 15.5019 10.3713L8.09786 3.88825Z" fill="white"/>
<path d="M46.8638 21.1515C45.9066 21.1515 45.1465 20.4809 45.1465 19.6363C45.1465 11.812 37.9394 5.45312 29.0714 5.45312C28.1142 5.45312 27.3541 4.78246 27.3541 3.93792C27.3541 3.09338 28.1142 2.42272 29.0714 2.42272C39.8256 2.42272 48.5811 10.1477 48.5811 19.6363C48.6092 20.4809 47.8209 21.1515 46.8638 21.1515Z" fill="white"/>
<path d="M37.9676 22.319C37.0104 22.319 36.2503 21.6483 36.2503 20.8038C36.2503 16.6805 32.4497 13.3272 27.7764 13.3272C26.8193 13.3272 26.0591 12.6565 26.0591 11.812C26.0591 10.9674 26.8193 10.2968 27.7764 10.2968C34.3641 10.2968 39.7131 15.0162 39.7131 20.8286C39.6849 21.6235 38.9248 22.319 37.9676 22.319Z" fill="white"/>
</svg>
