<svg width="24" height="24" viewBox="0 0 24 24" fill="none" xmlns="http://www.w3.org/2000/svg">
<path d="M14.8143 14.1734C12.2766 14.1734 7.21065 15.4375 7.21065 17.9752V19.8762H22.4179V17.9752C22.4179 15.4375 17.352 14.1734 14.8143 14.1734ZM6.2602 10.3716V7.52027H4.35929V10.3716H1.50793V12.2725H4.35929V15.1239H6.2602V12.2725H9.11155V10.3716M14.8143 12.2725C15.8226 12.2725 16.7896 11.872 17.5025 11.159C18.2155 10.446 18.6161 9.47903 18.6161 8.47072C18.6161 7.46242 18.2155 6.49542 17.5025 5.78244C16.7896 5.06946 15.8226 4.66891 14.8143 4.66891C13.806 4.66891 12.839 5.06946 12.126 5.78244C11.413 6.49542 11.0125 7.46242 11.0125 8.47072C11.0125 9.47903 11.413 10.446 12.126 11.159C12.839 11.872 13.806 12.2725 14.8143 12.2725Z" fill="white"/>
</svg>
